<mxfile host="Electron" modified="2023-06-28T06:59:02.129Z" agent="Mozilla/5.0 (Macintosh; Intel Mac OS X 10_15_7) AppleWebKit/537.36 (KHTML, like Gecko) draw.io/21.2.8 Chrome/112.0.5615.165 Electron/24.2.0 Safari/537.36" etag="uJTz98roxt4YTa0f-0_N" version="21.2.8" type="device">
  <diagram name="Page-1" id="hCRjhcQ7iV2ii4y84FTH">
    <mxGraphModel dx="641" dy="464" grid="1" gridSize="10" guides="1" tooltips="1" connect="1" arrows="1" fold="1" page="1" pageScale="1" pageWidth="291" pageHeight="413" math="0" shadow="0">
      <root>
        <mxCell id="0" />
        <mxCell id="1" parent="0" />
        <mxCell id="X3SQaYUly0QsBhZ8JnkZ-2" value="" style="rounded=1;whiteSpace=wrap;html=1;fontStyle=0;fillColor=#fa6800;strokeColor=#C73500;strokeWidth=0;fontColor=#000000;" vertex="1" parent="1">
          <mxGeometry x="53" y="147" width="186" height="120" as="geometry" />
        </mxCell>
        <mxCell id="X3SQaYUly0QsBhZ8JnkZ-3" value="" style="shape=callout;whiteSpace=wrap;html=1;perimeter=calloutPerimeter;strokeWidth=0;" vertex="1" parent="1">
          <mxGeometry x="82" y="174" width="64" height="65" as="geometry" />
        </mxCell>
        <mxCell id="X3SQaYUly0QsBhZ8JnkZ-6" value="" style="html=1;shadow=0;dashed=0;align=center;verticalAlign=middle;shape=mxgraph.arrows2.arrow;dy=0.6;dx=30;direction=south;notch=0;strokeWidth=0;" vertex="1" parent="1">
          <mxGeometry x="160" y="174" width="50" height="65" as="geometry" />
        </mxCell>
      </root>
    </mxGraphModel>
  </diagram>
</mxfile>
